<svg width="50" height="50" viewBox="0 0 50 50" fill="none" xmlns="http://www.w3.org/2000/svg">
<circle cx="25" cy="25" r="25" fill="#E8F5FF"/>
<path fill-rule="evenodd" clip-rule="evenodd" d="M18.2582 8.3331C17.8747 8.3331 17.5258 8.68203 17.5258 9.06544V11.6288H15.6948C15.3114 11.6288 14.9625 11.9777 14.9625 12.3611V15.2908H12.3991C12.0134 15.2873 11.6706 15.6421 11.6668 16.0232V39.8264C11.6645 40.2113 12.0096 40.5626 12.3991 40.5587H31.4417C31.8312 40.5623 32.1763 40.2113 32.174 39.8264V36.8967H34.3714C34.7609 36.9003 35.1175 36.5493 35.1152 36.1644L35.1037 33.601H37.3011C37.6845 33.601 38.0334 33.2521 38.0334 32.8687V15.6571C38.0334 15.347 37.9243 15.1457 37.7703 14.9474L32.8379 8.76777C32.7023 8.60837 32.3242 8.3353 31.808 8.33301L18.2582 8.3331ZM18.9905 9.79778H31.4414V13.4598L30.1254 11.9951C29.9652 11.8023 29.7933 11.6288 29.6104 11.6288H18.9905V9.79778ZM32.9062 11.2625L35.8359 14.9245H32.9062V11.2625ZM16.4271 13.0935H28.878V17.8542L27.047 15.6568C26.8375 15.3978 26.5757 15.2905 26.3146 15.2905H16.4271V13.0932L16.4271 13.0935ZM30.3428 14.5582L32.9062 18.2202H30.3428V14.5582ZM33.6385 16.3892H36.5682V32.1359H35.1035V18.9526C35.1035 18.5863 35.0463 18.2545 34.7372 17.8539L33.6385 16.3892ZM27.0468 17.8539L29.9765 21.8822H27.0468V17.8539ZM15.9921 18.9525L15.9923 18.9528C16.0151 18.9518 16.0381 18.9518 16.061 18.9528H20.4554C20.8598 18.9528 21.1878 19.2808 21.1878 19.6854V24.0798C21.1878 24.4841 20.8598 24.8121 20.4554 24.8121H16.061C15.6564 24.8121 15.3287 24.4841 15.3284 24.0798V19.6854C15.3269 19.3061 15.6148 18.9886 15.9923 18.9528L15.9921 18.9525ZM30.3427 19.6849H33.6384V35.4316H32.1737V22.2483C32.1737 22.0143 31.9285 21.6896 31.8074 21.516L30.3427 19.6849ZM15.9921 26.6427L15.9923 26.643C16.0151 26.642 16.0381 26.642 16.061 26.643H28.1458H28.1455C28.3407 26.6402 28.5287 26.7161 28.6676 26.8537C28.8066 26.9914 28.8848 27.1794 28.8848 27.3754C28.8848 27.5715 28.8066 27.7593 28.6676 27.897C28.5287 28.0347 28.3407 28.1105 28.1455 28.1077H16.0608H16.061C15.6585 28.1269 15.3169 27.8145 15.2978 27.4098C15.2789 27.0055 15.5897 26.6621 15.9923 26.643L15.9921 26.6427ZM15.9921 29.5724L15.9923 29.5727C16.0151 29.5717 16.0381 29.5717 16.061 29.5727H28.1458H28.1455C28.3407 29.5699 28.5287 29.6457 28.6676 29.7834C28.8066 29.9211 28.8848 30.1091 28.8848 30.305C28.8848 30.5012 28.8066 30.689 28.6676 30.8267C28.5287 30.9644 28.3407 31.0402 28.1455 31.0374H16.0608H16.061C15.6585 31.0566 15.3169 30.7439 15.2978 30.3395C15.2789 29.9352 15.5897 29.5918 15.9923 29.5727L15.9921 29.5724ZM15.9921 32.5021L15.9923 32.5024C16.0151 32.5011 16.0381 32.5011 16.061 32.5024H28.1458H28.1455C28.3407 32.4996 28.5287 32.5754 28.6676 32.7131C28.8066 32.8508 28.8848 33.0386 28.8848 33.2347C28.8848 33.4307 28.8066 33.6187 28.6676 33.7564C28.5287 33.894 28.3407 33.9699 28.1455 33.9671H16.0608H16.061C15.6585 33.986 15.3169 33.6736 15.2978 33.2692C15.2789 32.8649 15.5897 32.5213 15.9923 32.5024L15.9921 32.5021ZM15.9921 35.4318H15.9923C16.0151 35.4308 16.0381 35.4308 16.061 35.4318H28.1458H28.1455C28.3407 35.4293 28.5287 35.5051 28.6676 35.6428C28.8066 35.7805 28.8848 35.9683 28.8848 36.1644C28.8848 36.3604 28.8066 36.5484 28.6676 36.686C28.5287 36.8235 28.3407 36.8996 28.1455 36.8968H16.0608H16.061C15.6585 36.9157 15.3169 36.6033 15.2978 36.1989C15.2789 35.7943 15.5897 35.4509 15.9923 35.4319L15.9921 35.4318Z" fill="#248CD8"/>
</svg>
