<svg width="50" height="50" viewBox="0 0 50 50" fill="none" xmlns="http://www.w3.org/2000/svg">
<circle cx="25" cy="25" r="25" fill="#ECFFF2"/>
<path d="M14.2714 28.778V26.9963C14.2714 26.5297 14.6489 26.148 15.1197 26.148H24.4514V28.7778C24.723 28.7228 25.0071 28.6929 25.2997 28.6929C25.5881 28.6929 25.8722 28.7225 26.1479 28.7778L26.1482 26.148H35.9041C36.3707 26.148 36.7524 26.5297 36.7524 26.9963V28.7778C37.024 28.7228 37.308 28.6929 37.6007 28.6929C37.8891 28.6929 38.1732 28.7225 38.4489 28.7778L38.4492 26.9963C38.4492 25.5924 37.3039 24.4511 35.904 24.4511L26.1481 24.4514V21.9062H24.4516V24.4514H15.1199C13.716 24.4514 12.5747 25.5923 12.5747 26.9966V28.7781C12.8463 28.7231 13.1304 28.6932 13.423 28.6932C13.7115 28.6932 13.9958 28.7228 14.2712 28.7781L14.2714 28.778Z" fill="#10A242"/>
<path d="M27.7218 36.4082C27.0344 36.8917 26.1989 37.176 25.2997 37.176C24.396 37.176 23.5605 36.8917 22.8735 36.4082C21.3507 36.7434 20.2097 38.1006 20.2097 39.7208V41.4173C20.2097 41.8839 20.5873 42.2656 21.058 42.2656H29.5414C30.008 42.2656 30.3896 41.8839 30.3896 41.4173V39.7208C30.3896 38.1006 29.2443 36.7434 27.7217 36.4082H27.7218Z" fill="#10A242"/>
<path d="M39.904 36.4896C39.238 36.9224 38.4492 37.1769 37.6007 37.1769C36.6633 37.1769 35.7979 36.8671 35.0937 36.3496C33.4057 36.5404 32.0867 37.9784 32.0867 39.7218V41.4183C32.0867 41.8849 32.4642 42.2666 32.9349 42.2666H41.4183C41.8849 42.2666 42.2666 41.8849 42.2666 41.4183V39.7218C42.2666 38.2119 41.2698 36.9266 39.904 36.4896V36.4896Z" fill="#10A242"/>
<path d="M15.8453 36.4082C15.1583 36.8917 14.3225 37.176 13.4232 37.176C12.5196 37.176 11.684 36.8917 10.997 36.4082C9.47419 36.7434 8.33325 38.1006 8.33325 39.7208V41.4173C8.33325 41.8839 8.71079 42.2656 9.18152 42.2656H17.6649C18.1315 42.2656 18.5132 41.8839 18.5132 41.4173V39.7208C18.5132 38.1006 17.3681 36.7434 15.8452 36.4082H15.8453Z" fill="#10A242"/>
<path d="M27.8447 32.9348C27.8447 34.3403 26.7053 35.4797 25.2996 35.4797C23.8938 35.4797 22.7544 34.3403 22.7544 32.9348C22.7544 31.5291 23.8938 30.3896 25.2996 30.3896C26.7053 30.3896 27.8447 31.5291 27.8447 32.9348Z" fill="#10A242"/>
<path d="M21.0578 20.2102H29.5412C30.0078 20.2102 30.3895 19.8286 30.3895 19.362V17.6655C30.3895 16.0452 29.2441 14.6878 27.7215 14.3528C27.0342 14.836 26.1987 15.1204 25.2994 15.1204C24.3958 15.1204 23.5603 14.836 22.8733 14.3525C21.3504 14.6875 20.2095 16.045 20.2095 17.6652V19.3617C20.2095 19.8286 20.587 20.2102 21.0577 20.2102H21.0578Z" fill="#10A242"/>
<path d="M27.8447 10.8782C27.8447 12.2836 26.7053 13.423 25.2996 13.423C23.8938 13.423 22.7544 12.2836 22.7544 10.8782C22.7544 9.47243 23.8938 8.33301 25.2996 8.33301C26.7053 8.33301 27.8447 9.47243 27.8447 10.8782Z" fill="#10A242"/>
<path d="M40.1455 32.9348C40.1455 34.3403 39.006 35.4797 37.6003 35.4797C36.1948 35.4797 35.0554 34.3403 35.0554 32.9348C35.0554 31.5291 36.1948 30.3896 37.6003 30.3896C39.006 30.3896 40.1455 31.5291 40.1455 32.9348Z" fill="#10A242"/>
<path d="M15.9682 32.9348C15.9682 34.3403 14.8288 35.4797 13.423 35.4797C12.0176 35.4797 10.8782 34.3403 10.8782 32.9348C10.8782 31.5291 12.0176 30.3896 13.423 30.3896C14.8288 30.3896 15.9682 31.5291 15.9682 32.9348Z" fill="#10A242"/>
</svg>
