<svg width="24" height="24" viewBox="0 0 24 24" fill="none" xmlns="http://www.w3.org/2000/svg">
<path d="M5.93521 11.4829L5.89427 11.3877H3.05615L3.25018 11.6393L3.25002 11.6394C4.1745 12.8406 5.51967 13.6472 7.01482 13.8964L7.39174 13.9598L7.16665 13.6505H7.16681C6.6754 12.9771 6.26209 12.2499 5.93519 11.4829L5.93521 11.4829Z" fill="#272525"/>
<path d="M9.50284 11.3877H6.48828L6.59259 11.6101C6.93798 12.3428 7.36805 13.0325 7.87424 13.6649L7.99627 13.818L8.11831 13.6649C8.62445 13.0328 9.05455 12.3431 9.39915 11.6101L9.50284 11.3877Z" fill="#272525"/>
<path d="M10.0976 11.3877L10.0566 11.4829C9.72976 12.2499 9.31659 12.9771 8.82518 13.6506L8.6001 13.9599L8.97701 13.8965V13.8964C10.471 13.6448 11.8153 12.8389 12.7412 11.6398L12.9369 11.3878L10.0976 11.3877Z" fill="#272525"/>
<path d="M10.7692 8.40066C10.7333 9.16139 10.5993 9.91429 10.3708 10.6408L10.3062 10.8443H13.261L13.3055 10.7619V10.7618C13.6926 10.0374 13.9202 9.23856 13.9728 8.41884L13.9844 8.25195L10.7764 8.25211L10.7692 8.40066Z" fill="#272525"/>
<path d="M5.7783 8.41695C5.82425 9.20892 5.9808 9.99064 6.24304 10.7395L6.27959 10.8441H9.71199L9.74854 10.7395C10.0124 9.9908 10.1669 9.20828 10.2073 8.41571L10.2153 8.25195H5.76904L5.7783 8.41695Z" fill="#272525"/>
<path d="M5.62142 10.6407C5.39288 9.91411 5.25877 9.16122 5.22254 8.40049L5.21517 8.25195H2L2.01286 8.41994C2.07168 9.23777 2.29881 10.0348 2.68011 10.7608L2.72403 10.8441H5.68622L5.62142 10.6407Z" fill="#272525"/>
<path d="M5.22256 7.55983C5.25879 6.7991 5.3929 6.04604 5.62144 5.31965L5.68606 5.11621H2.72403L2.68011 5.1995C2.2988 5.92541 2.07153 6.7224 2.01286 7.54022L2 7.70821L5.21517 7.70837L5.22256 7.55983Z" fill="#272525"/>
<path d="M10.2077 7.54445C10.1672 6.75188 10.0127 5.96931 9.74887 5.22083L9.71232 5.11621H6.27992L6.24338 5.22083C5.98096 5.96951 5.82457 6.75124 5.77863 7.54337L5.76953 7.70838H10.2158L10.2077 7.54445Z" fill="#272525"/>
<path d="M10.3708 5.31967C10.5994 6.04606 10.7332 6.79895 10.7692 7.55984L10.7765 7.70838H13.9845L13.9729 7.54149H13.9728C13.9204 6.72178 13.6928 5.92291 13.3055 5.19856L13.261 5.11621H10.3062L10.3708 5.31967Z" fill="#272525"/>
<path d="M10.0566 4.47702L10.0976 4.57223H12.9371L12.7413 4.32033H12.7412C11.8154 3.12088 10.4712 2.31481 8.97702 2.06337L8.6001 2L8.82518 2.30931V2.30916C9.31659 2.98267 9.7299 3.71002 10.0566 4.47701L10.0566 4.47702Z" fill="#272525"/>
<path d="M6.48828 4.57303H9.50284L9.39916 4.35061C9.05455 3.61763 8.62446 2.92794 8.11831 2.29567L7.99628 2.14258L7.87424 2.29567C7.36794 2.92794 6.93784 3.61779 6.59259 4.35061L6.48828 4.57303Z" fill="#272525"/>
<path d="M5.93521 4.47717C6.26209 3.71014 6.67526 2.98282 7.16683 2.30931L7.39191 2L7.015 2.06337L7.01484 2.06352C5.51973 2.31261 4.1744 3.11931 3.25004 4.32081L3.05664 4.5724H5.89427L5.93521 4.47717Z" fill="#272525"/>
<path d="M21.7378 19.9873H19.6557L19.6176 20.1369H19.6178C19.598 20.2128 19.5878 20.2907 19.5874 20.3691C19.5874 20.7653 19.7989 21.1316 20.1422 21.3299C20.4853 21.528 20.9082 21.528 21.2515 21.3299C21.5948 21.1316 21.8061 20.7653 21.8061 20.3691C21.8059 20.2907 21.7957 20.2128 21.776 20.1369L21.7378 19.9873Z" fill="#272525"/>
<path d="M14.4771 19.9873H12.395L12.3568 20.1369H12.357C12.337 20.2128 12.3269 20.2907 12.3267 20.3691C12.3267 20.7653 12.5381 21.1316 12.8813 21.3299C13.2245 21.528 13.6475 21.528 13.9908 21.3299C14.3339 21.1316 14.5454 20.7653 14.5454 20.3691C14.5452 20.2907 14.535 20.2128 14.5152 20.1369L14.4771 19.9873Z" fill="#272525"/>
<path d="M22.3701 17.0332C21.8852 16.9342 21.4397 16.6961 21.0878 16.3483C20.7379 15.998 20.4995 15.5519 20.4028 15.0662L20.3711 14.9062H18.1406V19.2961H22.53V17.065L22.3701 17.0332Z" fill="#272525"/>
<path d="M11.603 12.7266H17.4485V19.2954H11.603V12.7266Z" fill="#272525"/>
</svg>
