<svg width="50" height="50" viewBox="0 0 50 50" fill="none" xmlns="http://www.w3.org/2000/svg">
<circle cx="25" cy="25" r="25" fill="#F9EFFF"/>
<path d="M31.3067 33.5903C31.4037 33.6344 31.5007 33.6498 31.5973 33.6498C31.8731 33.6498 32.1339 33.5007 32.2606 33.2399C33.7218 30.2954 34.0723 27.6859 33.3042 25.4793C32.6555 23.6232 31.3732 22.5712 30.6649 22.1172C30.2998 25.1143 29.3903 28.4243 27.9364 31.9804C27.914 32.0399 27.8842 32.0998 27.8545 32.1519L31.3067 33.5903Z" fill="#A601FF"/>
<path d="M10.396 25.4793C9.62832 27.6859 9.97836 30.2953 11.4323 33.2399C11.5664 33.5007 11.8276 33.6498 12.1027 33.6498C12.2004 33.6498 12.2974 33.6339 12.394 33.5903L15.8457 32.1514C15.816 32.0993 15.7862 32.0398 15.7638 31.9799C14.3099 28.4084 13.393 25.1064 13.028 22.1094C12.312 22.5796 11.0447 23.6297 10.3961 25.4792L10.396 25.4793Z" fill="#A601FF"/>
<path d="M26.8695 10.0935C24.8878 6.82904 22.4216 5.22255 22.2489 5.11127C22.0028 4.96291 21.6972 4.96291 21.451 5.11127C21.2787 5.22255 18.8106 6.82825 16.8274 10.0927C18.3578 10.9172 20.0748 11.3665 21.844 11.3665C23.6179 11.3669 25.3375 10.9176 26.8695 10.0935H26.8695Z" fill="#A601FF"/>
<path d="M21.8501 21.05C22.8574 21.05 23.6765 20.2309 23.6765 19.2236C23.6765 18.2163 22.857 17.3965 21.8501 17.3965C20.8428 17.3965 20.0229 18.2167 20.0229 19.2236C20.0229 20.2309 20.8428 21.05 21.8501 21.05Z" fill="#A601FF"/>
<path d="M14.332 19.2166C14.332 22.7429 15.2786 26.843 17.1425 31.4201C17.2533 31.696 17.53 31.8822 17.8275 31.8822H25.8647C26.1696 31.8822 26.4462 31.696 26.5571 31.4201C28.4209 26.8428 29.361 22.7349 29.361 19.2166C29.361 16.0519 28.6014 13.4659 27.5845 11.4C25.8346 12.3431 23.8688 12.8574 21.8434 12.8574C19.8216 12.8574 17.8588 12.3423 16.1105 11.3984C15.0924 13.4644 14.3321 16.0515 14.3321 19.2166H14.332ZM21.8504 15.9051C23.6798 15.9051 25.1677 17.393 25.1677 19.2224C25.1677 21.0519 23.6798 22.5405 21.8504 22.5405C20.0209 22.5405 18.5322 21.0519 18.5322 19.2224C18.5322 17.3934 20.0209 15.9051 21.8504 15.9051Z" fill="#A601FF"/>
<path d="M17.8281 33.3736C17.7832 33.3736 17.7462 33.3736 17.7013 33.3662C17.5074 34.0373 17.3807 34.8947 17.4479 35.9232C17.463 36.1319 17.5673 36.3185 17.7311 36.4301C17.9026 36.5569 18.1113 36.5944 18.3126 36.5418L19.1699 36.3181C19.1475 37.8539 19.401 40.7613 21.4588 42.1554C21.5782 42.2299 21.7123 42.2755 21.8463 42.2755C21.9881 42.2755 22.1222 42.2299 22.2339 42.1554C24.299 40.7613 24.5524 37.854 24.5301 36.3181L25.3874 36.5418C25.5887 36.594 25.7973 36.5569 25.9689 36.4301C26.1331 36.3185 26.2374 36.1319 26.2521 35.9232C26.3193 34.8944 26.1926 34.037 25.9986 33.3662C25.9538 33.3736 25.909 33.3736 25.8646 33.3736H17.8281Z" fill="#A601FF"/>
<path d="M33.1062 17.7729C33.4699 18.1214 33.8941 18.379 34.3487 18.5457C34.8184 18.7123 35.273 18.8032 35.7123 18.8032C35.8185 18.8032 35.9245 18.7881 36.0306 18.7729C36.1367 18.7578 36.2427 18.7123 36.3488 18.6668C36.4397 18.6062 36.5155 18.5456 36.5761 18.4547C36.6366 18.3638 36.667 18.2577 36.667 18.1213C36.667 17.8789 36.5306 17.6971 36.2427 17.5607C35.9548 17.4244 35.6215 17.288 35.2275 17.1516C34.8791 17.0304 34.5305 16.894 34.1517 16.7577C33.788 16.6061 33.4546 16.4243 33.1365 16.1819C32.8335 15.9546 32.5759 15.6667 32.3789 15.3334C32.1819 15 32.0759 14.5909 32.0759 14.1061C32.0759 13.6818 32.1517 13.3031 32.288 12.9697C32.4244 12.6364 32.6214 12.3484 32.8638 12.1212C33.1063 11.8788 33.3487 11.697 33.6669 11.5454C33.9851 11.3939 34.3487 11.2879 34.6517 11.2121L34.6516 10H36.4698V11.1819C36.9244 11.2424 37.3486 11.3636 37.7578 11.5303C38.1669 11.697 38.5457 11.9395 38.8942 12.2576L37.5608 14.0152C37.3032 13.8031 37.0002 13.6213 36.6668 13.5001C36.3335 13.3789 36.0154 13.3183 35.7122 13.3183C35.591 13.3183 35.4698 13.3183 35.3334 13.3334C35.1971 13.3485 35.0759 13.3789 34.9546 13.4243C34.8334 13.4698 34.7425 13.5456 34.6667 13.6364C34.5909 13.7273 34.5455 13.8486 34.5455 14.0152C34.5455 14.1516 34.5909 14.2577 34.6667 14.3486C34.7425 14.4395 34.8485 14.5153 35.0001 14.591C35.1364 14.6668 35.3031 14.7274 35.4697 14.8032C35.6515 14.8637 35.8334 14.9244 36.0303 14.985C36.3637 15.0911 36.7122 15.2274 37.091 15.3638C37.4546 15.5001 37.788 15.6971 38.1061 15.9244C38.4092 16.1516 38.6667 16.4395 38.8637 16.7881C39.0607 17.1365 39.1667 17.5608 39.1667 18.076C39.1667 18.47 39.091 18.8185 38.9395 19.1367C38.788 19.4549 38.591 19.7276 38.3486 19.9548C38.1061 20.182 37.8182 20.3791 37.4849 20.5457C37.1515 20.6973 36.7576 20.8184 36.4546 20.8942L36.4547 22.2732H34.6819V20.9398C34.2273 20.8792 33.6061 20.7428 33.0758 20.5306C32.5455 20.3185 32.091 20.0155 31.6667 19.6064L33.1062 17.7729Z" fill="#A601FF"/>
<path d="M12.4664 40.9853C12.6685 41.1789 12.9042 41.322 13.1567 41.4146C13.4177 41.5072 13.6702 41.5577 13.9143 41.5577C13.9733 41.5577 14.0321 41.5493 14.0911 41.5408C14.1501 41.5324 14.209 41.5072 14.2679 41.4819C14.3184 41.4482 14.3605 41.4145 14.3942 41.364C14.4278 41.3135 14.4446 41.2546 14.4446 41.1788C14.4446 41.0441 14.3689 40.9431 14.209 40.8674C14.049 40.7917 13.8638 40.7159 13.645 40.6401C13.4514 40.5728 13.2577 40.497 13.0473 40.4213C12.8452 40.3371 12.66 40.2361 12.4833 40.1014C12.3149 39.9751 12.1718 39.8152 12.0624 39.63C11.9529 39.4448 11.8941 39.2175 11.8941 38.9482C11.8941 38.7125 11.9362 38.502 12.0119 38.3168C12.0876 38.1316 12.1971 37.9717 12.3318 37.8454C12.4665 37.7108 12.6012 37.6098 12.7779 37.5256C12.9547 37.4414 13.1567 37.3825 13.3251 37.3404L13.325 36.667H14.3351V37.3236C14.5877 37.3572 14.8233 37.4246 15.0507 37.5172C15.2779 37.6098 15.4884 37.7445 15.682 37.9212L14.9412 38.8977C14.7981 38.7798 14.6298 38.6788 14.4446 38.6115C14.2594 38.5442 14.0826 38.5105 13.9142 38.5105C13.8469 38.5105 13.7795 38.5105 13.7038 38.5189C13.628 38.5273 13.5607 38.5441 13.4934 38.5694C13.426 38.5946 13.3755 38.6367 13.3334 38.6872C13.2913 38.7377 13.266 38.8051 13.266 38.8977C13.266 38.9734 13.2913 39.0324 13.3334 39.0829C13.3755 39.1334 13.4344 39.1755 13.5186 39.2176C13.5943 39.2597 13.6869 39.2933 13.7795 39.3354C13.8805 39.3691 13.9816 39.4028 14.091 39.4364C14.2762 39.4954 14.4698 39.5711 14.6802 39.6469C14.8822 39.7226 15.0674 39.832 15.2442 39.9583C15.4125 40.0845 15.5556 40.2445 15.6651 40.4381C15.7745 40.6317 15.8334 40.8674 15.8334 41.1537C15.8334 41.3725 15.7913 41.5662 15.7072 41.7429C15.623 41.9197 15.5136 42.0712 15.3789 42.1974C15.2442 42.3237 15.0842 42.4331 14.899 42.5257C14.7138 42.6099 14.495 42.6772 14.3267 42.7193L14.3267 43.4854H13.3418V42.7446C13.0893 42.711 12.7441 42.6352 12.4496 42.5173C12.1549 42.3995 11.9024 42.2312 11.6667 42.0039L12.4664 40.9853Z" fill="#A601FF"/>
</svg>
