<svg width="50" height="50" viewBox="0 0 50 50" fill="none" xmlns="http://www.w3.org/2000/svg">
<circle cx="25" cy="25" r="25" fill="#FFF4E8"/>
<path d="M41.5012 32.2984V35.0984H10V32.1352C9.99844 31.5094 10.2766 30.9156 10.7585 30.516C12.4582 29.1444 14.2866 27.9399 16.2176 26.9194C16.3424 27.2107 17.552 29.9915 18.3232 31.1658V31.1656C18.3339 31.1877 18.3562 31.2018 18.3808 31.2018C18.4053 31.2018 18.4277 31.1877 18.4384 31.1656C18.5951 30.6953 19.2 29.0631 20.1183 29.1752H20.1185C20.1473 29.1839 20.1781 29.1701 20.1908 29.1428C20.2035 29.1158 20.1946 29.0832 20.1696 29.0665C19.4752 28.5129 17.7151 27.0888 17.0464 26.2953V24.3785C16.7486 23.8723 16.5457 23.316 16.448 22.7368C16.2176 22.7176 15.9167 22.3975 15.5904 21.2489C15.1712 19.7705 15.5647 19.4761 15.9455 19.4792C15.7439 18.6152 15.2319 15.6136 17.4656 14.2504C17.1971 14.0236 17.0415 13.6902 17.0399 13.3386C17.0399 13.3386 19.6 13.6266 20.8192 13.3739C22.0384 13.121 23.3792 14.0875 23.5872 15.0187C23.5872 15.0187 26.0863 15.0187 25.117 19.4828C25.5074 19.4667 25.933 19.7357 25.5009 21.2524C25.1808 22.4013 24.8609 22.7246 24.6433 22.7404V22.7402C24.546 23.3194 24.3431 23.8756 24.0448 24.3817V26.2826C23.3727 27.0762 21.616 28.5034 20.9185 29.0538C20.8935 29.0706 20.8843 29.1029 20.8973 29.1302C20.91 29.1574 20.9408 29.1712 20.9696 29.1625C21.8879 29.0505 22.4928 30.6793 22.6495 31.1529C22.6602 31.175 22.6827 31.1891 22.7071 31.1891C22.7316 31.1891 22.7542 31.175 22.7649 31.1529C23.5361 29.9786 24.7457 27.1978 24.8705 26.9065C26.17 27.5987 27.4259 28.3701 28.6303 29.217C29.0361 29.0818 29.4316 28.9184 29.8145 28.7273L29.8848 28.6858C30.0846 28.5565 30.2049 28.3349 30.2049 28.0969V26.9034C27.0464 26.9322 26.1154 25.5786 26.1154 25.5786C26.1154 25.5786 27.9203 25.5498 27.8083 20.7786C27.696 16.0074 29.8752 15.2362 30.6944 14.9386C33.0784 14.033 34.2752 15.473 34.2752 15.473C37.04 15.2169 37.7953 18.2377 37.4752 21.6747C37.1551 25.1115 39.0241 25.649 39.0241 25.649C37.7281 26.9738 34.9922 26.8906 34.9922 26.8906V28.1227H34.9919C34.9919 28.3606 35.1122 28.5823 35.312 28.7115L35.3953 28.7627C36.3553 29.2651 38.3265 29.7868 38.3649 29.806C39.01 29.981 39.637 30.2178 40.2368 30.5131C40.94 30.8482 41.4185 31.5243 41.5009 32.2986L41.5012 32.2984Z" fill="#F29425"/>
</svg>
